<svg xmlns="http://www.w3.org/2000/svg" width="222.489" height="115.156" viewBox="0 0 222.489 115.156"><g transform="translate(-507.886 -84.171)"><g transform="translate(508.386 84.672)"><circle cx="3.516" cy="3.516" r="3.516" transform="translate(47.007)" fill="#1e2233" stroke="#1e2233" stroke-width="1"/><circle cx="3.516" cy="3.516" r="3.516" transform="translate(47.007 9.739)" fill="#1e2233" stroke="#1e2233" stroke-width="1"/><circle cx="3.516" cy="3.516" r="3.516" transform="translate(23.504 19.477)" fill="#1e2233" stroke="#1e2233" stroke-width="1"/><circle cx="2.054" cy="2.054" r="2.054" transform="translate(36.717 20.939)" fill="#1e2233" stroke="#1e2233" stroke-width="1"/><circle cx="3.516" cy="3.516" r="3.516" transform="translate(47.007 19.477)" fill="#1e2233" stroke="#1e2233" stroke-width="1"/><circle cx="1.696" cy="1.696" r="1.696" transform="translate(25.323 31.035)" fill="#1e2233" stroke="#1e2233" stroke-width="1"/><circle cx="1.696" cy="1.696" r="1.696" transform="translate(48.827 31.035)" fill="#1e2233" stroke="#1e2233" stroke-width="1"/><circle cx="3.516" cy="3.516" r="3.516" transform="translate(58.759 29.216)" fill="#1e2233" stroke="#1e2233" stroke-width="1"/><circle cx="3.516" cy="3.516" r="3.516" transform="translate(58.759 9.739)" fill="#1e2233" stroke="#1e2233" stroke-width="1"/><circle cx="1.696" cy="1.696" r="1.696" transform="translate(72.33 31.035)" fill="#1e2233" stroke="#1e2233" stroke-width="1"/><circle cx="1.987" cy="1.987" r="1.987" transform="translate(1.529 40.483)" fill="#1e2233" stroke="#1e2233" stroke-width="1"/><circle cx="3.516" cy="3.516" r="3.516" transform="translate(11.752 38.954)" fill="#1e2233" stroke="#1e2233" stroke-width="1"/><circle cx="3.516" cy="3.516" r="3.516" transform="translate(11.752 29.216)" fill="#1e2233" stroke="#1e2233" stroke-width="1"/><circle cx="2.003" cy="2.003" r="2.003" transform="translate(25.016 40.467)" fill="#1e2233" stroke="#1e2233" stroke-width="1"/><circle cx="3.516" cy="3.516" r="3.516" transform="translate(47.007 38.954)" fill="#1e2233" stroke="#1e2233" stroke-width="1"/><circle cx="2.054" cy="2.054" r="2.054" transform="translate(60.22 40.416)" fill="#1e2233" stroke="#1e2233" stroke-width="1"/><circle cx="3.516" cy="3.516" r="3.516" transform="translate(70.511 38.954)" fill="#1e2233" stroke="#1e2233" stroke-width="1"/><circle cx="3.516" cy="3.516" r="3.516" transform="translate(0 48.693)" fill="#1e2233" stroke="#1e2233" stroke-width="1"/><circle cx="3.516" cy="3.516" r="3.516" transform="translate(11.752 48.693)" fill="#1e2233" stroke="#1e2233" stroke-width="1"/><circle cx="2.003" cy="2.003" r="2.003" transform="translate(25.016 50.206)" fill="#1e2233" stroke="#1e2233" stroke-width="1"/><circle cx="3.516" cy="3.516" r="3.516" transform="translate(35.613 38.954)" fill="#1e2233" stroke="#1e2233" stroke-width="1"/><circle cx="2.074" cy="2.074" r="2.074" transform="translate(48.449 50.135)" fill="#1e2233" stroke="#1e2233" stroke-width="1"/><circle cx="3.516" cy="3.516" r="3.516" transform="translate(58.759 48.693)" fill="#1e2233" stroke="#1e2233" stroke-width="1"/><circle cx="3.516" cy="3.516" r="3.516" transform="translate(82.263 48.693)" fill="#1e2233" stroke="#1e2233" stroke-width="1"/><circle cx="2.003" cy="2.003" r="2.003" transform="translate(83.775 40.467)" fill="#1e2233" stroke="#1e2233" stroke-width="1"/><circle cx="3.516" cy="3.516" r="3.516" transform="translate(0 58.432)" fill="#1e2233" stroke="#1e2233" stroke-width="1"/><circle cx="3.516" cy="3.516" r="3.516" transform="translate(23.504 58.432)" fill="#1e2233" stroke="#1e2233" stroke-width="1"/><circle cx="2.054" cy="2.054" r="2.054" transform="translate(36.717 59.893)" fill="#1e2233" stroke="#1e2233" stroke-width="1"/><circle cx="3.516" cy="3.516" r="3.516" transform="translate(47.007 58.432)" fill="#1e2233" stroke="#1e2233" stroke-width="1"/><circle cx="2.054" cy="2.054" r="2.054" transform="translate(60.22 59.893)" fill="#1e2233" stroke="#1e2233" stroke-width="1"/><circle cx="3.516" cy="3.516" r="3.516" transform="translate(82.263 58.432)" fill="#1e2233" stroke="#1e2233" stroke-width="1"/><circle cx="2.055" cy="2.055" r="2.055" transform="translate(83.723 69.731)" fill="#1e2233" stroke="#1e2233" stroke-width="1"/><circle cx="1.987" cy="1.987" r="1.987" transform="translate(1.529 69.699)" fill="#1e2233" stroke="#1e2233" stroke-width="1"/><circle cx="3.516" cy="3.516" r="3.516" transform="translate(23.504 68.17)" fill="#1e2233" stroke="#1e2233" stroke-width="1"/><circle cx="3.516" cy="3.516" r="3.516" transform="translate(35.255 68.17)" fill="#1e2233" stroke="#1e2233" stroke-width="1"/><circle cx="2.054" cy="2.054" r="2.054" transform="translate(60.22 69.632)" fill="#1e2233" stroke="#1e2233" stroke-width="1"/><circle cx="3.516" cy="3.516" r="3.516" transform="translate(70.511 68.17)" fill="#1e2233" stroke="#1e2233" stroke-width="1"/><circle cx="3.516" cy="3.516" r="3.516" transform="translate(92.921 48.693)" fill="#1e2233" stroke="#1e2233" stroke-width="1"/><circle cx="3.516" cy="3.516" r="3.516" transform="translate(92.921 58.432)" fill="#1e2233" stroke="#1e2233" stroke-width="1"/><circle cx="3.516" cy="3.516" r="3.516" transform="translate(11.752 77.909)" fill="#1e2233" stroke="#1e2233" stroke-width="1"/><circle cx="3.516" cy="3.516" r="3.516" transform="translate(23.504 77.909)" fill="#1e2233" stroke="#1e2233" stroke-width="1"/><circle cx="2.054" cy="2.054" r="2.054" transform="translate(36.717 79.37)" fill="#1e2233" stroke="#1e2233" stroke-width="1"/><circle cx="3.516" cy="3.516" r="3.516" transform="translate(47.007 77.909)" fill="#1e2233" stroke="#1e2233" stroke-width="1"/><circle cx="3.516" cy="3.516" r="3.516" transform="translate(70.511 77.909)" fill="#1e2233" stroke="#1e2233" stroke-width="1"/><circle cx="3.516" cy="3.516" r="3.516" transform="translate(82.263 77.909)" fill="#1e2233" stroke="#1e2233" stroke-width="1"/><circle cx="2.12" cy="2.12" r="2.12" transform="translate(13.148 89.043)" fill="#1e2233" stroke="#1e2233" stroke-width="1"/><circle cx="2.088" cy="2.088" r="2.088" transform="translate(24.931 89.075)" fill="#1e2233" stroke="#1e2233" stroke-width="1"/><circle cx="3.516" cy="3.516" r="3.516" transform="translate(58.759 87.647)" fill="#1e2233" stroke="#1e2233" stroke-width="1"/><circle cx="3.516" cy="3.516" r="3.516" transform="translate(70.511 87.647)" fill="#1e2233" stroke="#1e2233" stroke-width="1"/><circle cx="2.055" cy="2.055" r="2.055" transform="translate(83.723 89.108)" fill="#1e2233" stroke="#1e2233" stroke-width="1"/><circle cx="3.516" cy="3.516" r="3.516" transform="translate(35.255 97.386)" fill="#1e2233" stroke="#1e2233" stroke-width="1"/><circle cx="2.074" cy="2.074" r="2.074" transform="translate(48.449 98.828)" fill="#1e2233" stroke="#1e2233" stroke-width="1"/><circle cx="2.074" cy="2.074" r="2.074" transform="translate(48.449 89.102)" fill="#1e2233" stroke="#1e2233" stroke-width="1"/><circle cx="1.99" cy="1.99" r="1.99" transform="translate(72.036 98.911)" fill="#1e2233" stroke="#1e2233" stroke-width="1"/><circle cx="3.516" cy="3.516" r="3.516" transform="translate(70.511 107.125)" fill="#1e2233" stroke="#1e2233" stroke-width="1"/><rect width="4.97" height="4.97" transform="translate(62.275 26.507) rotate(-135)" fill="#1e2233" stroke="#1e2233" stroke-width="1"/><rect width="4.97" height="4.97" transform="translate(38.771 55.724) rotate(-135)" fill="#1e2233" stroke="#1e2233" stroke-width="1"/><rect width="4.97" height="4.97" transform="translate(38.771 94.678) rotate(-135)" fill="#1e2233" stroke="#1e2233" stroke-width="1"/><rect width="4.97" height="4.97" transform="translate(74.026 65.462) rotate(-135)" fill="#1e2233" stroke="#1e2233" stroke-width="1"/><rect width="4.97" height="4.97" transform="translate(15.267 65.462) rotate(-135)" fill="#1e2233" stroke="#1e2233" stroke-width="1"/><rect width="4.97" height="4.97" transform="translate(96.437 74.867) rotate(-135)" fill="#1e2233" stroke="#1e2233" stroke-width="1"/><rect width="4.97" height="4.97" transform="translate(62.275 84.939) rotate(-135)" fill="#1e2233" stroke="#1e2233" stroke-width="1"/><g transform="translate(36.339 29.568)"><line y1="4.865" x2="4.865" fill="none" stroke="#1e2233" stroke-miterlimit="10" stroke-width="2"/><line x1="4.865" y1="4.865" fill="none" stroke="#1e2233" stroke-miterlimit="10" stroke-width="2"/></g><g transform="translate(72.269 50.451)"><line y1="3.516" x2="3.516" fill="none" stroke="#1e2233" stroke-miterlimit="10" stroke-width="2"/><line x1="3.516" y1="3.516" fill="none" stroke="#1e2233" stroke-miterlimit="10" stroke-width="2"/></g><g transform="translate(59.842 98.469)"><line y1="4.865" x2="4.865" fill="none" stroke="#1e2233" stroke-miterlimit="10" stroke-width="2"/><line x1="4.865" y1="4.865" fill="none" stroke="#1e2233" stroke-miterlimit="10" stroke-width="2"/></g><g transform="translate(12.882 69.505)"><line y1="4.865" x2="4.865" fill="none" stroke="#1e2233" stroke-miterlimit="10" stroke-width="2"/><line x1="4.865" y1="4.865" fill="none" stroke="#1e2233" stroke-miterlimit="10" stroke-width="2"/></g><g transform="translate(48.903 70.314)"><line y1="3.247" x2="3.247" fill="none" stroke="#1e2233" stroke-miterlimit="10" stroke-width="2"/><line x1="3.247" y1="3.247" fill="none" stroke="#1e2233" stroke-miterlimit="10" stroke-width="2"/></g></g><text transform="translate(628.375 138.477)" fill="#1e2233" font-size="15" font-family="Poppins-Regular, Poppins"><tspan x="0" y="0">Maastricht </tspan><tspan x="0" y="18">art map</tspan><tspan y="18" font-family="Poppins-Medium, Poppins" font-weight="500"> </tspan><tspan y="18" font-family="Poppins-SemiBold, Poppins" font-weight="600">2020</tspan></text></g></svg>