<svg xmlns="http://www.w3.org/2000/svg" viewBox="0 0 1440 974.4">
  <defs>
    <style>
      .cls-1 {
        fill: #d2d4dd;
      }

      .cls-2 {
        fill: #c72e34;
      }

      .cls-3 {
        fill: #2b2e41;
      }

      .cls-4 {
        fill: #b73c3a;
      }

      .cls-5 {
        fill: #8f99ab;
      }
    </style>
  </defs>
  <g id="Layer_2" data-name="Layer 2">
    <g id="right">
      <g id="Group_71" data-name="Group 71">
        <polygon class="cls-1" points="725.2 974.4 861.67 974.4 963.68 793.85 813.66 671.8 602.62 726.73 548.36 832.27 725.2 974.4"/>
        <path id="Path_162" data-name="Path 162" class="cls-2" d="M450.94,361.83q-8.64-5.58-17.21-10.86l-.2-.12C218.42,218.2,28.16,212.41,0,212.3V0H243.93c158.28,200,201,340.16,206.39,359.53a.47.47,0,0,1,0,.14h0C450.77,361.1,450.94,361.83,450.94,361.83Z"/>
        <path id="Path_163" data-name="Path 163" class="cls-3" d="M533,0S666.12,447.68,885.18,445.21s403.5-217.37,438-445.21Z"/>
        <path id="Path_164" data-name="Path 164" class="cls-2" d="M310.31,567.83c0,.12,0,.24,0,.36A385.43,385.43,0,0,1,300,638.08a.29.29,0,0,1,0,.09q-1,4.2-2.13,8.49C274.61,735.87,191.21,945.3,129.16,974.4H0V769.76c3-9.08,7.21-20.54,12.75-33.58.37-.86.75-1.74,1.14-2.62,0-.11.1-.2.13-.31A467.45,467.45,0,0,1,46.71,671a2.2,2.2,0,0,1,.17-.25c28.26-45.06,69.91-93.44,129.65-127.47l1.25-.72c35.82-20.19,78.09-35.23,127.85-41.35l0,0c.05.19.23.86.48,2C307.66,510,312,532.76,310.31,567.83Z"/>
        <path id="Path_165" data-name="Path 165" class="cls-3" d="M216.42,602.06c-57.85,50.07-122.1,65-166.35,68.68-1.14.11-2.25.19-3.35.27A267,267,0,0,1,0,670.52V422.23c79.26,10,140.89,71.94,177.79,120.35.4.55.82,1.11,1.24,1.65C203.25,576.31,216.42,602.06,216.42,602.06Z"/>
        <path id="Path_166" data-name="Path 166" class="cls-3" d="M432.75,346.49S644.56,497.86,647.92,608.87H424.22S484.89,585.32,432.75,346.49Z"/>
        <path id="Path_167" data-name="Path 167" class="cls-2" d="M394,719.88s65.6-117.74,58.87-242.2c0,0,208.47,106.16,272.38-115.85,0,0,116.29,143.78,311.39,44.54,0,0,335.93,219.59,78,314.31C860.84,813.85,394,719.88,394,719.88Z"/>
        <path id="Path_168" data-name="Path 168" class="cls-4" d="M50.15,670.65s0,.06-.08.09c-15.46,20.6-18.41,43.89-27.16,63.6,0,.11-4.95,1.61-5,1.72-.4.88-.83,2.83-1.2,3.69C11.22,752.4,3.06,760.33,0,769.58V669.21a431.46,431.46,0,0,0,46.88,1.56Z"/>
        <path id="Path_169" data-name="Path 169" class="cls-1" d="M305.63,501.22s132.29.73,147.19-23.54c0,0,23.68,155.4-70.65,223.35s-94.58-21-94.58-21L300,638.17S319.18,578.07,305.63,501.22Z"/>
        <path id="Path_170" data-name="Path 170" class="cls-5" d="M452.82,479.57c-26.14,25.5-138.25,23.88-146.69,23.71a.33.33,0,0,1-.14,0h-.36c-55.5,1.93-117.17,35.61-126.6,41l-1.24.7c-.42-.56-.84-1.1-1.26-1.64C97.07,440,19.44,425.55,0,423.54V201.9c245.88,4.94,432.75,145.58,432.75,145.58l.78,3.37c13.44,59.77,18.34,116.57,19.17,127C452.78,479,452.82,479.57,452.82,479.57Z"/>
        <path id="Path_171" data-name="Path 171" class="cls-1" d="M725.2,361.83c-.14.61-.27,1.22-.41,1.82C697.11,484.4,611.37,498.26,597.24,499.73h0c-1.29.14-2,.16-2,.16h0c-31.5-41-70.4-78.13-102.23-105.6-.77-.63-1.52-1.28-2.26-1.92l-3-2.54C473,377.23,460,366.93,450.32,359.54c-8-6.14-13.68-10.28-16.17-12.05l-1.09-.78-.16-.12-.15-.11C411.84,249.42,253.09,25.91,234.53,0H533c.14.42.26.85.4,1.27.08.24.15.49.21.72.4,1.21.76,2.43,1.14,3.63a0,0,0,0,1,0,0c.22.69.45,1.38.65,2.07.18.53.34,1,.5,1.57.1.28.19.57.27.84l.57,1.77c.14.45.29.89.42,1.32a1184,1184,0,0,0,51.39,132.56c.09.19.18.38.26.57a.15.15,0,0,1,0,.07C655.25,290.54,725.2,361.83,725.2,361.83Z"/>
        <path id="Path_172" data-name="Path 172" class="cls-1" d="M1036.59,406.37s18,11.81,30.68,21.51c0,0,179.73-106.88,367.35-101.94,1.59,0,3.48.1,5.38.17V0H1323.13S1291.75,266.07,1036.59,406.37Z"/>
        <path id="Path_175" data-name="Path 175" class="cls-3" d="M1183.57,647.22V841.46h70.07s94.58-199.19-11.93-389.36c0,0,19.15-38.58-34.56-8.92C1207.15,443.18,1223.13,496,1183.57,647.22Z"/>
        <path id="Path_176" data-name="Path 176" class="cls-2" d="M1248.14,659.61s140.07,22.8,191.86,0V409.43s-109.66-25.19-209.6,23.44C1230.4,432.87,1286.07,540.79,1248.14,659.61Z"/>
        <path id="Path_177" data-name="Path 177" class="cls-3" d="M1440,704.17V974.4H1210.76c3.5-9.51,7.93-20.85,13.42-34.27a387,387,0,0,1,16.72-35.52h0c.71-1.34,1.43-2.68,2.16-4,.92-1.69,1.86-3.37,2.8-5q2.76-4.89,5.63-9.66c.7-1.19,1.43-2.37,2.15-3.54.57-.92,1.15-1.84,1.71-2.76l2-3.11q4.64-7.28,9.4-14.14c.5-.73,1-1.45,1.5-2.15s.85-1.21,1.29-1.82c2.08-2.95,4.19-5.85,6.3-8.69.7-1,1.42-1.9,2.14-2.85s1.42-1.88,2.14-2.81,1.43-1.88,2.17-2.82a547.12,547.12,0,0,1,78.38-80.9c.19-.16.34-.27.4-.34h0a1.31,1.31,0,0,1,.23-.2c10.47-8.82,20.45-16.6,29.58-23.35l.08,0c26.94-19.91,46.39-30.74,48.8-32,0,0,0,0,.08-.05l.12-.06A.08.08,0,0,0,1440,704.17Z"/>
        <path id="Path_178" data-name="Path 178" class="cls-1" d="M1240.89,904.61V793.85s73.76-9.2,120.21-33.92C1361.1,759.93,1287.23,817.21,1240.89,904.61Z"/>
        <path id="Path_179" data-name="Path 179" class="cls-1" d="M1240.89,793.85l-2.6-103.39s8.77-24.26,9.85-30.85c0,0,133.52,21.89,191.86,0v44.57s-56.69,34.49-78.9,55.76C1361.1,759.94,1301.83,790.87,1240.89,793.85Z"/>
        <path class="cls-5" d="M1230.4,432.87s82.09-43.27,209.6-23.44V326.11c-101.64-12.43-248.81,43.46-248.81,43.46a602.6,602.6,0,0,1,39.21,63.3"/>
        <path class="cls-1" d="M963.68,652s100.84-145.61,243.47-208.82c0,0,18.25,59.25-23.58,208.82Z"/>
        <path class="cls-5" d="M1233.74,390.19l-3.33,42.68s-15.2,6.55-23.25,10.31l-.13.06c-2.58,1.16-44.42,20.12-73.67,41.57,0,0-26.09-25.08-66.09-56.92,0,0,40.67-27.4,123.92-58.32Z"/>
        <path class="cls-3" d="M450.94,730S721.41,663.86,725.2,974.4H371.53Z"/>
        <path class="cls-5" d="M450.22,974.4s52.48-356.26-60.57-334.58S178.37,763.74,108.21,974.4"/>
        <path class="cls-2" d="M792.17,974.4s40-121.22,75.82-119.11S1067.27,929,1067.27,929v45.4Z"/>
        <path class="cls-5" d="M1292.35,974.4S1339.48,516.11,963.68,652s72.91,322.4,72.91,322.4Z"/>
      </g>
    </g>
  </g>
</svg>
