<svg xmlns="http://www.w3.org/2000/svg" viewBox="0 0 217.93 59.7">
  <defs>
    <style>
      .cls-1 {
        fill: #c72e34;
      }

      .cls-2 {
        fill: #2b2e41;
      }

      .cls-3 {
        fill: #8f99ab;
      }

      .cls-4 {
        fill: #d2d4dd;
      }

      .cls-5 {
        fill: none;
        stroke: #d23a2f;
        stroke-miterlimit: 10;
        stroke-width: 0.91px;
      }

      .cls-6 {
        fill: #c62f35;
      }
    </style>
  </defs>
  <g id="Layer_2" data-name="Layer 2">
    <g id="right">
      <g>
        <g>
          <circle class="cls-1" cx="26.42" cy="1.84" r="1.84"/>
          <circle class="cls-1" cx="26.42" cy="6.93" r="1.84"/>
          <circle class="cls-1" cx="14.13" cy="12.02" r="1.84"/>
          <circle class="cls-2" cx="20.27" cy="12.02" r="1.07"/>
          <circle class="cls-2" cx="26.42" cy="12.02" r="1.84"/>
          <circle class="cls-1" cx="14.13" cy="17.12" r="0.89"/>
          <circle class="cls-3" cx="26.42" cy="17.12" r="0.89"/>
          <circle class="cls-2" cx="32.57" cy="17.12" r="1.84"/>
          <circle class="cls-4" cx="32.57" cy="6.93" r="1.84"/>
          <circle class="cls-1" cx="38.71" cy="17.12" r="0.89"/>
          <circle class="cls-1" cx="1.84" cy="22.21" r="1.04"/>
          <circle class="cls-1" cx="7.98" cy="22.21" r="1.84"/>
          <circle class="cls-1" cx="7.98" cy="17.12" r="1.84"/>
          <circle class="cls-3" cx="14.13" cy="22.21" r="1.05"/>
          <circle class="cls-1" cx="26.42" cy="22.21" r="1.84"/>
          <circle class="cls-1" cx="32.57" cy="22.21" r="1.07"/>
          <circle class="cls-1" cx="38.71" cy="22.21" r="1.84"/>
          <circle class="cls-1" cx="1.84" cy="27.3" r="1.84"/>
          <circle class="cls-3" cx="7.98" cy="27.3" r="1.84"/>
          <circle class="cls-1" cx="14.13" cy="27.3" r="1.05"/>
          <circle class="cls-1" cx="20.46" cy="22.21" r="1.84"/>
          <circle class="cls-1" cx="26.42" cy="27.3" r="1.08"/>
          <circle class="cls-4" cx="32.57" cy="27.3" r="1.84"/>
          <circle class="cls-1" cx="44.86" cy="27.3" r="1.84"/>
          <circle class="cls-1" cx="44.86" cy="22.21" r="1.05"/>
          <circle class="cls-1" cx="1.84" cy="32.39" r="1.84"/>
          <circle class="cls-1" cx="14.13" cy="32.39" r="1.84"/>
          <circle class="cls-1" cx="20.27" cy="32.39" r="1.07"/>
          <circle class="cls-1" cx="26.42" cy="32.39" r="1.84"/>
          <circle class="cls-1" cx="32.57" cy="32.39" r="1.07"/>
          <circle class="cls-2" cx="44.86" cy="32.39" r="1.84"/>
          <circle class="cls-2" cx="44.86" cy="37.54" r="1.07"/>
          <circle class="cls-1" cx="1.84" cy="37.49" r="1.04"/>
          <circle class="cls-1" cx="14.13" cy="37.49" r="1.84"/>
          <circle class="cls-1" cx="20.27" cy="37.49" r="1.84"/>
          <circle class="cls-2" cx="32.57" cy="37.49" r="1.07"/>
          <circle class="cls-1" cx="38.71" cy="37.49" r="1.84"/>
          <circle class="cls-1" cx="50.43" cy="27.3" r="1.84"/>
          <circle class="cls-4" cx="50.43" cy="32.39" r="1.84"/>
          <circle class="cls-4" cx="7.98" cy="42.58" r="1.84"/>
          <circle class="cls-3" cx="14.13" cy="42.58" r="1.84"/>
          <circle class="cls-1" cx="20.27" cy="42.58" r="1.07"/>
          <circle class="cls-1" cx="26.42" cy="42.58" r="1.84"/>
          <circle class="cls-1" cx="38.71" cy="42.58" r="1.84"/>
          <circle class="cls-1" cx="44.86" cy="42.58" r="1.84"/>
          <circle class="cls-2" cx="7.98" cy="47.67" r="1.11"/>
          <circle class="cls-1" cx="14.13" cy="47.67" r="1.09"/>
          <circle class="cls-1" cx="32.57" cy="47.67" r="1.84"/>
          <circle class="cls-1" cx="38.71" cy="47.67" r="1.84"/>
          <circle class="cls-1" cx="44.86" cy="47.67" r="1.07"/>
          <circle class="cls-2" cx="20.27" cy="52.76" r="1.84"/>
          <circle class="cls-1" cx="26.42" cy="52.76" r="1.08"/>
          <circle class="cls-4" cx="26.42" cy="47.68" r="1.08"/>
          <circle class="cls-1" cx="38.71" cy="52.76" r="1.04"/>
          <circle class="cls-1" cx="38.71" cy="57.86" r="1.84"/>
          <rect class="cls-3" x="31.27" y="10.72" width="2.6" height="2.6" transform="translate(47.09 43.55) rotate(-135)"/>
          <rect class="cls-4" x="18.97" y="26" width="2.6" height="2.6" transform="translate(15.31 60.94) rotate(-135)"/>
          <rect class="cls-2" x="18.97" y="46.37" width="2.6" height="2.6" transform="translate(0.9 95.72) rotate(-135)"/>
          <rect class="cls-1" x="37.41" y="31.09" width="2.6" height="2.6" transform="translate(43.18 82.67) rotate(-135)"/>
          <rect class="cls-1" x="6.68" y="31.09" width="2.6" height="2.6" transform="translate(-9.28 60.95) rotate(-135)"/>
          <rect class="cls-1" x="49.13" y="36.01" width="2.6" height="2.6" transform="translate(59.7 99.35) rotate(-135)"/>
          <rect class="cls-1" x="31.27" y="41.28" width="2.6" height="2.6" transform="translate(25.48 95.71) rotate(-135)"/>
          <g>
            <line class="cls-5" x1="19" y1="18.01" x2="21.55" y2="15.46"/>
            <line class="cls-5" x1="21.55" y1="18.01" x2="19" y2="15.46"/>
          </g>
          <g>
            <line class="cls-5" x1="37.79" y1="28.22" x2="39.63" y2="26.38"/>
            <line class="cls-5" x1="39.63" y1="28.22" x2="37.79" y2="26.38"/>
          </g>
          <g>
            <line class="cls-5" x1="31.29" y1="54.04" x2="33.84" y2="51.49"/>
            <line class="cls-5" x1="33.84" y1="54.04" x2="31.29" y2="51.49"/>
          </g>
          <g>
            <line class="cls-5" x1="6.74" y1="38.89" x2="9.28" y2="36.35"/>
            <line class="cls-5" x1="9.28" y1="38.89" x2="6.74" y2="36.35"/>
          </g>
          <g>
            <line class="cls-5" x1="25.57" y1="38.47" x2="27.27" y2="36.77"/>
            <line class="cls-5" x1="27.27" y1="38.47" x2="25.57" y2="36.77"/>
          </g>
        </g>
        <g>
          <path class="cls-6" d="M65.32,26.16h1.57L71,35.32l4.1-9.16h1.55V37.24H75.18V29L71.5,37.24h-1L66.78,29v8.28H65.32Z"/>
          <path class="cls-6" d="M82.71,28.32A3.62,3.62,0,0,1,86,30.07v-1.6h1.47v8.77H86V35.6a3.65,3.65,0,0,1-3.28,1.78c-2.34,0-4.15-1.84-4.15-4.56A4.16,4.16,0,0,1,82.71,28.32ZM83,29.59a3,3,0,0,0-3,3.23,3,3,0,1,0,5.94,0A3,3,0,0,0,83,29.59Z"/>
          <path class="cls-6" d="M93.53,28.32a3.65,3.65,0,0,1,3.27,1.75v-1.6h1.47v8.77H96.8V35.6a3.66,3.66,0,0,1-3.28,1.78c-2.34,0-4.15-1.84-4.15-4.56A4.16,4.16,0,0,1,93.53,28.32Zm.29,1.27a3,3,0,0,0-3,3.23,3,3,0,1,0,5.94,0A3,3,0,0,0,93.82,29.59Z"/>
          <path class="cls-6" d="M103.83,37.38c-2,0-3.48-1.12-3.58-2.72h1.5c.08.85.84,1.49,2.07,1.49s1.79-.58,1.79-1.3c0-2-5.18-.81-5.18-4.08,0-1.34,1.26-2.45,3.21-2.45s3.22,1,3.32,2.75H105.5a1.69,1.69,0,0,0-1.91-1.52c-1.07,0-1.71.52-1.71,1.22,0,2.08,5.09.94,5.16,4.08C107,36.29,105.77,37.38,103.83,37.38Z"/>
          <path class="cls-6" d="M109.4,29.67h-1.14v-1.2h1.14V26.26h1.46v2.21h2.29v1.2h-2.29v5.17c0,.86.32,1.16,1.21,1.16h1.08v1.24h-1.32c-1.55,0-2.43-.64-2.43-2.4Z"/>
          <path class="cls-6" d="M116.36,37.24h-1.45V28.47h1.45v1.42a3,3,0,0,1,2.84-1.58v1.5h-.39c-1.39,0-2.45.62-2.45,2.66Z"/>
          <path class="cls-6" d="M120.63,26.05a1,1,0,1,1,1,1A1,1,0,0,1,120.63,26.05Zm.24,2.42h1.46v8.77h-1.46Z"/>
          <path class="cls-6" d="M128.54,28.32a3.82,3.82,0,0,1,4.05,3H131a2.41,2.41,0,0,0-2.48-1.73c-1.6,0-2.79,1.14-2.79,3.29s1.19,3.31,2.79,3.31A2.36,2.36,0,0,0,131,34.42h1.57a3.91,3.91,0,0,1-4.05,3,4.18,4.18,0,0,1-4.28-4.54A4.17,4.17,0,0,1,128.54,28.32Z"/>
          <path class="cls-6" d="M134.52,25.39H136v4.34a3.28,3.28,0,0,1,2.89-1.42c2,0,3.51,1.24,3.51,3.76v5.17h-1.44v-5c0-1.79-1-2.7-2.45-2.7S136,30.5,136,32.39v4.85h-1.46Z"/>
          <path class="cls-6" d="M145.08,29.67h-1.14v-1.2h1.14V26.26h1.46v2.21h2.29v1.2h-2.29v5.17c0,.86.32,1.16,1.21,1.16h1.08v1.24h-1.32c-1.55,0-2.43-.64-2.43-2.4Z"/>
          <path class="cls-6" d="M158.47,28.32a3.62,3.62,0,0,1,3.27,1.75v-1.6h1.47v8.77h-1.47V35.6a3.66,3.66,0,0,1-3.28,1.78c-2.34,0-4.15-1.84-4.15-4.56A4.16,4.16,0,0,1,158.47,28.32Zm.29,1.27a3,3,0,0,0-3,3.23,3,3,0,1,0,5.94,0A3,3,0,0,0,158.76,29.59Z"/>
          <path class="cls-6" d="M167.13,37.24h-1.46V28.47h1.46v1.42A2.94,2.94,0,0,1,170,28.31v1.5h-.38c-1.39,0-2.45.62-2.45,2.66Z"/>
          <path class="cls-6" d="M172,29.67h-1.14v-1.2H172V26.26h1.46v2.21h2.29v1.2h-2.29v5.17c0,.86.32,1.16,1.21,1.16h1.08v1.24h-1.32c-1.55,0-2.43-.64-2.43-2.4Z"/>
          <path class="cls-6" d="M194.4,32.27c0-1.79-1-2.7-2.4-2.7s-2.48.94-2.48,2.83v4.84h-1.45v-5c0-1.79-.95-2.7-2.4-2.7s-2.48.94-2.48,2.83v4.84h-1.45V28.47h1.45v1.26A3.17,3.17,0,0,1,186,28.31a3.31,3.31,0,0,1,3.22,2,3.23,3.23,0,0,1,3.1-2,3.4,3.4,0,0,1,3.56,3.76v5.17H194.4Z"/>
          <path class="cls-6" d="M201.83,28.32a3.62,3.62,0,0,1,3.27,1.75v-1.6h1.47v8.77H205.1V35.6a3.66,3.66,0,0,1-3.28,1.78c-2.34,0-4.15-1.84-4.15-4.56A4.16,4.16,0,0,1,201.83,28.32Zm.29,1.27a3,3,0,0,0-3,3.23,3,3,0,1,0,5.94,0A3,3,0,0,0,202.12,29.59Z"/>
          <path class="cls-6" d="M213.77,28.32a4.16,4.16,0,0,1,4.16,4.5c0,2.72-1.81,4.56-4.16,4.56a3.78,3.78,0,0,1-3.28-1.76V41.4H209V28.47h1.46v1.61A3.7,3.7,0,0,1,213.77,28.32Zm-.3,1.27a3,3,0,0,0-3,3.25,3,3,0,1,0,5.95,0A3,3,0,0,0,213.47,29.59Z"/>
        </g>
      </g>
    </g>
  </g>
</svg>
