<svg xmlns="http://www.w3.org/2000/svg" viewBox="0 0 60.46 69.06">
  <defs>
    <style>
      .cls-1, .cls-2, .cls-3, .cls-4, .cls-5 {
        fill: #c73035;
      }

      .cls-2, .cls-3, .cls-4, .cls-5 {
        stroke: #c73035;
        stroke-miterlimit: 10;
      }

      .cls-2 {
        stroke-width: 1.09px;
      }

      .cls-3 {
        stroke-width: 0.76px;
      }

      .cls-4 {
        stroke-width: 1.05px;
      }

      .cls-5 {
        stroke-width: 0.63px;
      }
    </style>
  </defs>
  <g id="Layer_2" data-name="Layer 2">
    <g id="back">
      <g>
        <circle class="cls-1" cx="30.56" cy="2.13" r="2.13"/>
        <circle class="cls-1" cx="30.56" cy="8.02" r="2.13"/>
        <circle class="cls-1" cx="16.34" cy="13.91" r="2.13"/>
        <circle class="cls-1" cx="23.45" cy="13.91" r="1.24"/>
        <circle class="cls-1" cx="30.56" cy="13.91" r="2.13"/>
        <circle class="cls-1" cx="16.34" cy="19.8" r="1.03"/>
        <circle class="cls-1" cx="30.56" cy="19.8" r="1.03"/>
        <circle class="cls-1" cx="37.67" cy="19.8" r="2.13"/>
        <circle class="cls-1" cx="37.67" cy="8.02" r="2.13"/>
        <circle class="cls-1" cx="44.78" cy="19.8" r="1.03"/>
        <circle class="cls-1" cx="2.13" cy="25.69" r="1.2"/>
        <circle class="cls-1" cx="9.24" cy="25.69" r="2.13"/>
        <circle class="cls-1" cx="9.24" cy="19.8" r="2.13"/>
        <circle class="cls-1" cx="16.34" cy="25.69" r="1.21"/>
        <circle class="cls-1" cx="30.56" cy="25.69" r="2.13"/>
        <circle class="cls-1" cx="37.67" cy="25.69" r="1.24"/>
        <circle class="cls-1" cx="44.78" cy="25.69" r="2.13"/>
        <circle class="cls-1" cx="2.13" cy="31.58" r="2.13"/>
        <circle class="cls-1" cx="9.24" cy="31.58" r="2.13"/>
        <circle class="cls-1" cx="16.34" cy="31.58" r="1.21"/>
        <circle class="cls-1" cx="23.67" cy="25.69" r="2.13"/>
        <circle class="cls-1" cx="30.56" cy="31.58" r="1.25"/>
        <circle class="cls-1" cx="37.67" cy="31.58" r="2.13"/>
        <circle class="cls-1" cx="51.89" cy="31.58" r="2.13"/>
        <circle class="cls-1" cx="51.89" cy="25.69" r="1.21"/>
        <circle class="cls-1" cx="2.13" cy="37.47" r="2.13"/>
        <circle class="cls-1" cx="16.34" cy="37.47" r="2.13"/>
        <circle class="cls-1" cx="23.45" cy="37.47" r="1.24"/>
        <circle class="cls-1" cx="30.56" cy="37.47" r="2.13"/>
        <circle class="cls-1" cx="37.67" cy="37.47" r="1.24"/>
        <circle class="cls-1" cx="51.89" cy="37.47" r="2.13"/>
        <circle class="cls-1" cx="51.89" cy="43.42" r="1.24"/>
        <circle class="cls-1" cx="2.13" cy="43.36" r="1.2"/>
        <circle class="cls-1" cx="16.34" cy="43.36" r="2.13"/>
        <circle class="cls-1" cx="23.45" cy="43.36" r="2.13"/>
        <circle class="cls-1" cx="37.67" cy="43.36" r="1.24"/>
        <circle class="cls-1" cx="44.78" cy="43.36" r="2.13"/>
        <circle class="cls-1" cx="58.34" cy="31.58" r="2.13"/>
        <circle class="cls-1" cx="58.34" cy="37.47" r="2.13"/>
        <circle class="cls-1" cx="9.24" cy="49.26" r="2.13"/>
        <circle class="cls-1" cx="16.34" cy="49.26" r="2.13"/>
        <circle class="cls-1" cx="23.45" cy="49.26" r="1.24"/>
        <circle class="cls-1" cx="30.56" cy="49.26" r="2.13"/>
        <circle class="cls-1" cx="44.78" cy="49.26" r="2.13"/>
        <circle class="cls-1" cx="51.89" cy="49.26" r="2.13"/>
        <circle class="cls-1" cx="9.24" cy="55.15" r="1.28"/>
        <circle class="cls-1" cx="16.34" cy="55.15" r="1.26"/>
        <circle class="cls-1" cx="37.67" cy="55.15" r="2.13"/>
        <circle class="cls-1" cx="44.78" cy="55.15" r="2.13"/>
        <circle class="cls-1" cx="51.89" cy="55.15" r="1.24"/>
        <circle class="cls-1" cx="23.45" cy="61.04" r="2.13"/>
        <circle class="cls-1" cx="30.56" cy="61.04" r="1.25"/>
        <circle class="cls-1" cx="30.56" cy="55.15" r="1.25"/>
        <circle class="cls-1" cx="44.78" cy="61.04" r="1.2"/>
        <circle class="cls-1" cx="44.78" cy="66.93" r="2.13"/>
        <rect class="cls-1" x="36.17" y="12.41" width="3.01" height="3.01" transform="translate(54.47 50.38) rotate(-135)"/>
        <rect class="cls-1" x="21.95" y="30.08" width="3.01" height="3.01" transform="translate(17.71 70.5) rotate(-135)"/>
        <rect class="cls-1" x="21.95" y="53.64" width="3.01" height="3.01" transform="translate(1.04 110.72) rotate(-135)"/>
        <rect class="cls-1" x="43.28" y="35.97" width="3.01" height="3.01" transform="translate(49.95 95.63) rotate(-135)"/>
        <rect class="cls-1" x="7.73" y="35.97" width="3.01" height="3.01" transform="translate(-10.73 70.5) rotate(-135)"/>
        <rect class="cls-1" x="56.83" y="41.66" width="3.01" height="3.01" transform="translate(69.07 114.93) rotate(-135)"/>
        <rect class="cls-1" x="36.17" y="47.75" width="3.01" height="3.01" transform="translate(29.48 110.72) rotate(-135)"/>
        <g>
          <line class="cls-2" x1="21.98" y1="20.83" x2="24.92" y2="17.89"/>
          <line class="cls-2" x1="24.92" y1="20.83" x2="21.98" y2="17.89"/>
        </g>
        <g>
          <line class="cls-3" x1="43.72" y1="32.65" x2="45.84" y2="30.52"/>
          <line class="cls-3" x1="45.84" y1="32.65" x2="43.72" y2="30.52"/>
        </g>
        <g>
          <line class="cls-2" x1="36.2" y1="62.51" x2="39.14" y2="59.57"/>
          <line class="cls-2" x1="39.14" y1="62.51" x2="36.2" y2="59.57"/>
        </g>
        <g>
          <line class="cls-4" x1="7.79" y1="44.99" x2="10.74" y2="42.04"/>
          <line class="cls-4" x1="10.74" y1="44.99" x2="7.79" y2="42.04"/>
        </g>
        <g>
          <line class="cls-5" x1="29.58" y1="44.5" x2="31.55" y2="42.53"/>
          <line class="cls-5" x1="31.55" y1="44.5" x2="29.58" y2="42.53"/>
        </g>
      </g>
    </g>
  </g>
</svg>
