<svg xmlns="http://www.w3.org/2000/svg" viewBox="0 0 851.73 233.3">
  <defs>
    <style>
      .cls-1 {
        fill: #fff;
      }

      .cls-2 {
        fill: none;
        stroke: #fff;
        stroke-miterlimit: 10;
        stroke-width: 2px;
      }
    </style>
  </defs>
  <g id="Layer_2" data-name="Layer 2">
    <g id="right">
      <g>
        <g>
          <circle class="cls-1" cx="103.25" cy="7.18" r="7.18"/>
          <circle class="cls-1" cx="103.25" cy="27.09" r="7.18"/>
          <circle class="cls-1" cx="55.22" cy="46.99" r="7.18"/>
          <circle class="cls-1" cx="79.24" cy="46.99" r="4.2"/>
          <circle class="cls-1" cx="103.25" cy="46.99" r="7.18"/>
          <circle class="cls-1" cx="55.22" cy="66.89" r="3.47"/>
          <circle class="cls-1" cx="103.25" cy="66.89" r="3.47"/>
          <circle class="cls-1" cx="127.27" cy="66.89" r="7.18"/>
          <circle class="cls-1" cx="127.27" cy="27.09" r="7.18"/>
          <circle class="cls-1" cx="151.29" cy="66.89" r="3.47"/>
          <circle class="cls-1" cx="7.18" cy="86.8" r="4.06"/>
          <circle class="cls-1" cx="31.2" cy="86.8" r="7.18"/>
          <circle class="cls-1" cx="31.2" cy="66.89" r="7.18"/>
          <circle class="cls-1" cx="55.22" cy="86.8" r="4.09"/>
          <circle class="cls-1" cx="103.25" cy="86.8" r="7.18"/>
          <circle class="cls-1" cx="127.27" cy="86.8" r="4.2"/>
          <circle class="cls-1" cx="151.29" cy="86.8" r="7.18"/>
          <circle class="cls-1" cx="7.18" cy="106.7" r="7.18"/>
          <circle class="cls-1" cx="31.2" cy="106.7" r="7.18"/>
          <circle class="cls-1" cx="55.22" cy="106.7" r="4.09"/>
          <circle class="cls-1" cx="79.97" cy="86.8" r="7.18"/>
          <circle class="cls-1" cx="103.25" cy="106.7" r="4.24"/>
          <circle class="cls-1" cx="127.27" cy="106.7" r="7.18"/>
          <circle class="cls-1" cx="175.31" cy="106.7" r="7.18"/>
          <circle class="cls-1" cx="175.31" cy="86.8" r="4.09"/>
          <circle class="cls-1" cx="7.18" cy="126.6" r="7.18"/>
          <circle class="cls-1" cx="55.22" cy="126.6" r="7.18"/>
          <circle class="cls-1" cx="79.24" cy="126.6" r="4.2"/>
          <circle class="cls-1" cx="103.25" cy="126.6" r="7.18"/>
          <circle class="cls-1" cx="127.27" cy="126.6" r="4.2"/>
          <circle class="cls-1" cx="175.31" cy="126.6" r="7.18"/>
          <circle class="cls-1" cx="175.31" cy="146.71" r="4.2"/>
          <circle class="cls-1" cx="7.18" cy="146.51" r="4.06"/>
          <circle class="cls-1" cx="55.22" cy="146.51" r="7.18"/>
          <circle class="cls-1" cx="79.24" cy="146.51" r="7.18"/>
          <circle class="cls-1" cx="127.27" cy="146.51" r="4.2"/>
          <circle class="cls-1" cx="151.29" cy="146.51" r="7.18"/>
          <circle class="cls-1" cx="197.09" cy="106.7" r="7.18"/>
          <circle class="cls-1" cx="197.09" cy="126.6" r="7.18"/>
          <circle class="cls-1" cx="31.2" cy="166.41" r="7.18"/>
          <circle class="cls-1" cx="55.22" cy="166.41" r="7.18"/>
          <circle class="cls-1" cx="79.24" cy="166.41" r="4.2"/>
          <circle class="cls-1" cx="103.25" cy="166.41" r="7.18"/>
          <circle class="cls-1" cx="151.29" cy="166.41" r="7.18"/>
          <circle class="cls-1" cx="175.31" cy="166.41" r="7.18"/>
          <circle class="cls-1" cx="31.2" cy="186.31" r="4.33"/>
          <circle class="cls-1" cx="55.22" cy="186.31" r="4.27"/>
          <circle class="cls-1" cx="127.27" cy="186.31" r="7.18"/>
          <circle class="cls-1" cx="151.29" cy="186.31" r="7.18"/>
          <circle class="cls-1" cx="175.31" cy="186.31" r="4.2"/>
          <circle class="cls-1" cx="79.24" cy="206.21" r="7.18"/>
          <circle class="cls-1" cx="103.25" cy="206.21" r="4.24"/>
          <circle class="cls-1" cx="103.25" cy="186.34" r="4.24"/>
          <circle class="cls-1" cx="151.29" cy="206.21" r="4.07"/>
          <circle class="cls-1" cx="151.29" cy="226.12" r="7.18"/>
          <rect class="cls-1" x="122.19" y="41.91" width="10.16" height="10.16" transform="translate(184.04 170.21) rotate(-135)"/>
          <rect class="cls-1" x="74.16" y="101.62" width="10.16" height="10.16" transform="translate(59.82 238.18) rotate(-135)"/>
          <rect class="cls-1" x="74.16" y="181.23" width="10.16" height="10.16" transform="translate(3.52 374.08) rotate(-135)"/>
          <rect class="cls-1" x="146.21" y="121.52" width="10.16" height="10.16" transform="translate(168.74 323.1) rotate(-135)"/>
          <rect class="cls-1" x="26.12" y="121.52" width="10.16" height="10.16" transform="translate(-36.26 238.19) rotate(-135)"/>
          <rect class="cls-1" x="192.01" y="140.75" width="10.16" height="10.16" transform="translate(233.34 388.3) rotate(-135)"/>
          <rect class="cls-1" x="122.19" y="161.33" width="10.16" height="10.16" transform="translate(99.6 374.07) rotate(-135)"/>
          <g>
            <line class="cls-2" x1="74.27" y1="70.37" x2="84.21" y2="60.43"/>
            <line class="cls-2" x1="84.21" y1="70.37" x2="74.27" y2="60.43"/>
          </g>
          <g>
            <line class="cls-2" x1="147.7" y1="110.29" x2="154.88" y2="103.11"/>
            <line class="cls-2" x1="154.88" y1="110.29" x2="147.7" y2="103.11"/>
          </g>
          <g>
            <line class="cls-2" x1="122.3" y1="211.19" x2="132.24" y2="201.24"/>
            <line class="cls-2" x1="132.24" y1="211.19" x2="122.3" y2="201.24"/>
          </g>
          <g>
            <line class="cls-2" x1="26.33" y1="151.99" x2="36.27" y2="142.05"/>
            <line class="cls-2" x1="36.27" y1="151.99" x2="26.33" y2="142.05"/>
          </g>
          <g>
            <line class="cls-2" x1="99.94" y1="150.34" x2="106.58" y2="143.7"/>
            <line class="cls-2" x1="106.58" y1="150.34" x2="99.94" y2="143.7"/>
          </g>
        </g>
        <g>
          <path class="cls-1" d="M255.29,102.24h6.13l16,35.78,16-35.78h6.07v43.29h-5.69V113.25l-14.39,32.28h-4L261,113.19v32.34h-5.69Z"/>
          <path class="cls-1" d="M323.27,110.68c6.38,0,10.76,3.26,12.76,6.82v-6.25h5.76v34.28H336v-6.38c-2.06,3.69-6.5,6.95-12.82,6.95-9.14,0-16.21-7.2-16.21-17.84S314.07,110.68,323.27,110.68Zm1.13,4.95c-6.26,0-11.58,4.57-11.58,12.63s5.32,12.83,11.58,12.83S336,136.4,336,128.33,330.65,115.63,324.4,115.63Z"/>
          <path class="cls-1" d="M365.54,110.68c6.38,0,10.76,3.26,12.76,6.82v-6.25h5.76v34.28H378.3v-6.38c-2.07,3.69-6.5,6.95-12.82,6.95-9.14,0-16.21-7.2-16.21-17.84S356.34,110.68,365.54,110.68Zm1.13,4.95c-6.26,0-11.58,4.57-11.58,12.63s5.32,12.83,11.58,12.83,11.63-4.69,11.63-12.76S372.92,115.63,366.67,115.63Z"/>
          <path class="cls-1" d="M405.81,146.1c-8,0-13.64-4.39-14-10.64h5.88c.31,3.31,3.25,5.81,8.06,5.81,4.51,0,7-2.25,7-5.06,0-7.63-20.26-3.19-20.26-16,0-5.26,4.93-9.58,12.57-9.58s12.57,4.07,12.95,10.77h-5.69c-.25-3.45-2.88-6-7.45-6-4.19,0-6.69,2-6.69,4.76,0,8.13,19.89,3.69,20.14,16C418.32,141.84,413.38,146.1,405.81,146.1Z"/>
          <path class="cls-1" d="M427.56,115.94h-4.44v-4.69h4.44v-8.63h5.7v8.63h8.94v4.69h-8.94v20.21c0,3.37,1.25,4.56,4.75,4.56h4.19v4.82h-5.13c-6.07,0-9.51-2.5-9.51-9.38Z"/>
          <path class="cls-1" d="M454.77,145.53h-5.69V111.25h5.69v5.57c1.93-3.82,5.63-6.2,11.07-6.2v5.88h-1.5c-5.44,0-9.57,2.44-9.57,10.39Z"/>
          <path class="cls-1" d="M471.46,101.8a3.82,3.82,0,1,1,3.88,3.88A3.81,3.81,0,0,1,471.46,101.8Zm.94,9.45h5.69v34.28H472.4Z"/>
          <path class="cls-1" d="M502.36,110.68c8.5,0,14.07,4.39,15.82,11.58h-6.13c-1.19-4.13-4.63-6.76-9.69-6.76-6.26,0-10.89,4.44-10.89,12.83s4.63,12.94,10.89,12.94c5.06,0,8.44-2.43,9.69-6.75h6.13c-1.75,6.82-7.32,11.58-15.82,11.58-9.76,0-16.71-6.89-16.71-17.77S492.6,110.68,502.36,110.68Z"/>
          <path class="cls-1" d="M525.74,99.24h5.69v17c2.25-3.63,6.5-5.57,11.32-5.57,7.63,0,13.7,4.88,13.7,14.7v20.21h-5.63V126.14c0-7-3.81-10.57-9.57-10.57s-9.82,3.63-9.82,11v19h-5.69Z"/>
          <path class="cls-1" d="M567,115.94h-4.44v-4.69H567v-8.63h5.69v8.63h8.95v4.69H572.7v20.21c0,3.37,1.25,4.56,4.76,4.56h4.19v4.82h-5.13c-6.07,0-9.51-2.5-9.51-9.38Z"/>
          <path class="cls-1" d="M619.35,110.68c6.38,0,10.76,3.26,12.76,6.82v-6.25h5.76v34.28h-5.76v-6.38c-2.06,3.69-6.5,6.95-12.82,6.95-9.13,0-16.2-7.2-16.2-17.84S610.16,110.68,619.35,110.68Zm1.13,4.95c-6.26,0-11.58,4.57-11.58,12.63s5.32,12.83,11.58,12.83,11.63-4.69,11.63-12.76S626.74,115.63,620.48,115.63Z"/>
          <path class="cls-1" d="M653.18,145.53h-5.69V111.25h5.69v5.57c1.94-3.82,5.63-6.2,11.07-6.2v5.88h-1.5c-5.44,0-9.57,2.44-9.57,10.39Z"/>
          <path class="cls-1" d="M672.06,115.94h-4.44v-4.69h4.44v-8.63h5.7v8.63h8.94v4.69h-8.94v20.21c0,3.37,1.24,4.56,4.75,4.56h4.19v4.82h-5.13c-6.07,0-9.51-2.5-9.51-9.38Z"/>
          <path class="cls-1" d="M759.75,126.14c0-7-3.75-10.57-9.39-10.57s-9.69,3.69-9.69,11.07v18.89H735V126.14c0-7-3.75-10.57-9.39-10.57S716,119.26,716,126.64v18.89h-5.69V111.25H716v4.94a12.39,12.39,0,0,1,10.82-5.57c5.63,0,10.32,2.51,12.58,7.64,2-5,6.87-7.64,12.13-7.64,7.82,0,13.89,4.88,13.89,14.7v20.21h-5.63Z"/>
          <path class="cls-1" d="M788.81,110.68c6.38,0,10.76,3.26,12.77,6.82v-6.25h5.75v34.28h-5.75v-6.38c-2.07,3.69-6.51,6.95-12.83,6.95-9.14,0-16.2-7.2-16.2-17.84S779.61,110.68,788.81,110.68Zm1.13,4.95c-6.26,0-11.58,4.57-11.58,12.63s5.32,12.83,11.58,12.83,11.64-4.69,11.64-12.76S796.19,115.63,789.94,115.63Z"/>
          <path class="cls-1" d="M835.46,110.68c9.2,0,16.27,6.89,16.27,17.58s-7.07,17.84-16.27,17.84a14.85,14.85,0,0,1-12.82-6.89V161.8h-5.7V111.25h5.7v6.32A14.48,14.48,0,0,1,835.46,110.68Zm-1.18,4.95c-6.2,0-11.64,4.75-11.64,12.7s5.44,12.76,11.64,12.76,11.63-4.75,11.63-12.83S840.59,115.63,834.28,115.63Z"/>
        </g>
      </g>
    </g>
  </g>
</svg>
